<mxfile host="Electron" agent="Mozilla/5.0 (Windows NT 10.0; Win64; x64) AppleWebKit/537.36 (KHTML, like Gecko) draw.io/26.0.9 Chrome/128.0.6613.186 Electron/32.2.5 Safari/537.36" version="26.0.9">
  <diagram id="rQ5Gjrxa1RFdaPKSIdV7" name="Page-1">
    <mxGraphModel dx="1181" dy="644" grid="1" gridSize="10" guides="1" tooltips="1" connect="1" arrows="1" fold="1" page="1" pageScale="1" pageWidth="850" pageHeight="1100" math="0" shadow="0">
      <root>
        <mxCell id="0" />
        <mxCell id="1" parent="0" />
        <mxCell id="LJC_R8oFvCXxi0flJs9v-1" value="&lt;font size=&quot;3&quot;&gt;TimelineXpress&lt;/font&gt;" style="rounded=1;whiteSpace=wrap;html=1;" parent="1" vertex="1">
          <mxGeometry x="560" y="200" width="160" height="440" as="geometry" />
        </mxCell>
        <mxCell id="LJC_R8oFvCXxi0flJs9v-2" value="&lt;font size=&quot;3&quot;&gt;User&lt;/font&gt;" style="rounded=0;whiteSpace=wrap;html=1;" parent="1" vertex="1">
          <mxGeometry x="120" y="200" width="120" height="440" as="geometry" />
        </mxCell>
        <mxCell id="LJC_R8oFvCXxi0flJs9v-3" value="" style="endArrow=classic;html=1;rounded=0;fontSize=18;exitX=1.008;exitY=0.117;exitDx=0;exitDy=0;exitPerimeter=0;entryX=-0.003;entryY=0.108;entryDx=0;entryDy=0;entryPerimeter=0;" parent="1" edge="1">
          <mxGeometry relative="1" as="geometry">
            <mxPoint x="240.96000000000004" y="240.80000000000007" as="sourcePoint" />
            <mxPoint x="559.52" y="237.19999999999993" as="targetPoint" />
          </mxGeometry>
        </mxCell>
        <mxCell id="LJC_R8oFvCXxi0flJs9v-4" value="Create Initial Timeline" style="edgeLabel;resizable=0;html=1;align=center;verticalAlign=middle;fontSize=18;" parent="LJC_R8oFvCXxi0flJs9v-3" connectable="0" vertex="1">
          <mxGeometry relative="1" as="geometry" />
        </mxCell>
        <mxCell id="LJC_R8oFvCXxi0flJs9v-5" value="" style="endArrow=classic;html=1;rounded=0;fontSize=18;exitX=1;exitY=0.226;exitDx=0;exitDy=0;exitPerimeter=0;" parent="1" edge="1">
          <mxGeometry relative="1" as="geometry">
            <mxPoint x="240" y="400.36" as="sourcePoint" />
            <mxPoint x="560" y="400" as="targetPoint" />
          </mxGeometry>
        </mxCell>
        <mxCell id="LJC_R8oFvCXxi0flJs9v-6" value="Add an Event" style="edgeLabel;resizable=0;html=1;align=center;verticalAlign=middle;fontSize=18;" parent="LJC_R8oFvCXxi0flJs9v-5" connectable="0" vertex="1">
          <mxGeometry relative="1" as="geometry" />
        </mxCell>
        <mxCell id="LJC_R8oFvCXxi0flJs9v-7" value="" style="endArrow=classic;html=1;rounded=0;fontSize=18;" parent="1" edge="1">
          <mxGeometry relative="1" as="geometry">
            <mxPoint x="240" y="440" as="sourcePoint" />
            <mxPoint x="560" y="440" as="targetPoint" />
          </mxGeometry>
        </mxCell>
        <mxCell id="LJC_R8oFvCXxi0flJs9v-8" value="Edit an Event" style="edgeLabel;resizable=0;html=1;align=center;verticalAlign=middle;fontSize=18;" parent="LJC_R8oFvCXxi0flJs9v-7" connectable="0" vertex="1">
          <mxGeometry relative="1" as="geometry" />
        </mxCell>
        <mxCell id="LJC_R8oFvCXxi0flJs9v-9" value="" style="endArrow=classic;html=1;rounded=0;fontSize=18;entryX=0.003;entryY=0.441;entryDx=0;entryDy=0;entryPerimeter=0;" parent="1" edge="1">
          <mxGeometry relative="1" as="geometry">
            <mxPoint x="240" y="559" as="sourcePoint" />
            <mxPoint x="560.48" y="557.76" as="targetPoint" />
          </mxGeometry>
        </mxCell>
        <mxCell id="LJC_R8oFvCXxi0flJs9v-10" value="Delete an Event" style="edgeLabel;resizable=0;html=1;align=center;verticalAlign=middle;fontSize=18;" parent="LJC_R8oFvCXxi0flJs9v-9" connectable="0" vertex="1">
          <mxGeometry relative="1" as="geometry" />
        </mxCell>
        <mxCell id="LJC_R8oFvCXxi0flJs9v-11" value="" style="endArrow=classic;html=1;rounded=0;fontSize=18;entryX=0.002;entryY=0.56;entryDx=0;entryDy=0;entryPerimeter=0;" parent="1" edge="1">
          <mxGeometry relative="1" as="geometry">
            <mxPoint x="240" y="280" as="sourcePoint" />
            <mxPoint x="560.3199999999999" y="281.5999999999999" as="targetPoint" />
          </mxGeometry>
        </mxCell>
        <mxCell id="LJC_R8oFvCXxi0flJs9v-12" value="Add Another Timeline" style="edgeLabel;resizable=0;html=1;align=center;verticalAlign=middle;fontSize=18;" parent="LJC_R8oFvCXxi0flJs9v-11" connectable="0" vertex="1">
          <mxGeometry relative="1" as="geometry" />
        </mxCell>
        <mxCell id="WwGMtlM-MG-jqN7k4C0A-1" value="" style="endArrow=classic;html=1;rounded=0;entryX=0.986;entryY=0.223;entryDx=0;entryDy=0;entryPerimeter=0;" parent="1" edge="1">
          <mxGeometry relative="1" as="geometry">
            <mxPoint x="560" y="320" as="sourcePoint" />
            <mxPoint x="238.32000000000005" y="320.28" as="targetPoint" />
          </mxGeometry>
        </mxCell>
        <mxCell id="WwGMtlM-MG-jqN7k4C0A-2" value="&lt;font style=&quot;font-size: 18px;&quot;&gt;Open Timeline Applete&lt;/font&gt;" style="edgeLabel;resizable=0;html=1;;align=center;verticalAlign=middle;" parent="WwGMtlM-MG-jqN7k4C0A-1" connectable="0" vertex="1">
          <mxGeometry relative="1" as="geometry" />
        </mxCell>
        <mxCell id="WwGMtlM-MG-jqN7k4C0A-4" value="" style="endArrow=classic;html=1;rounded=0;entryX=0.986;entryY=0.223;entryDx=0;entryDy=0;entryPerimeter=0;exitX=0.003;exitY=0.555;exitDx=0;exitDy=0;exitPerimeter=0;" parent="1" edge="1">
          <mxGeometry relative="1" as="geometry">
            <mxPoint x="560.48" y="479.79999999999995" as="sourcePoint" />
            <mxPoint x="240" y="480" as="targetPoint" />
          </mxGeometry>
        </mxCell>
        <mxCell id="WwGMtlM-MG-jqN7k4C0A-5" value="&lt;font style=&quot;font-size: 18px;&quot;&gt;Open Event Applete&lt;/font&gt;" style="edgeLabel;resizable=0;html=1;;align=center;verticalAlign=middle;" parent="WwGMtlM-MG-jqN7k4C0A-4" connectable="0" vertex="1">
          <mxGeometry relative="1" as="geometry" />
        </mxCell>
        <mxCell id="WwGMtlM-MG-jqN7k4C0A-9" value="" style="endArrow=classic;html=1;rounded=0;fontSize=18;entryX=0.002;entryY=0.56;entryDx=0;entryDy=0;entryPerimeter=0;" parent="1" edge="1">
          <mxGeometry relative="1" as="geometry">
            <mxPoint x="241" y="360" as="sourcePoint" />
            <mxPoint x="561.3199999999999" y="361.5999999999999" as="targetPoint" />
          </mxGeometry>
        </mxCell>
        <mxCell id="WwGMtlM-MG-jqN7k4C0A-10" value="Commit Timeline" style="edgeLabel;resizable=0;html=1;align=center;verticalAlign=middle;fontSize=18;" parent="WwGMtlM-MG-jqN7k4C0A-9" connectable="0" vertex="1">
          <mxGeometry relative="1" as="geometry" />
        </mxCell>
        <mxCell id="WwGMtlM-MG-jqN7k4C0A-11" value="" style="endArrow=classic;html=1;rounded=0;fontSize=18;entryX=0.002;entryY=0.56;entryDx=0;entryDy=0;entryPerimeter=0;" parent="1" edge="1">
          <mxGeometry relative="1" as="geometry">
            <mxPoint x="240" y="520" as="sourcePoint" />
            <mxPoint x="560.3199999999999" y="521.5999999999999" as="targetPoint" />
          </mxGeometry>
        </mxCell>
        <mxCell id="WwGMtlM-MG-jqN7k4C0A-12" value="Commit Event" style="edgeLabel;resizable=0;html=1;align=center;verticalAlign=middle;fontSize=18;" parent="WwGMtlM-MG-jqN7k4C0A-11" connectable="0" vertex="1">
          <mxGeometry relative="1" as="geometry" />
        </mxCell>
        <mxCell id="WwGMtlM-MG-jqN7k4C0A-13" value="" style="endArrow=classic;html=1;rounded=0;fontSize=18;entryX=0.003;entryY=0.441;entryDx=0;entryDy=0;entryPerimeter=0;" parent="1" edge="1">
          <mxGeometry relative="1" as="geometry">
            <mxPoint x="240" y="600" as="sourcePoint" />
            <mxPoint x="560.48" y="598.76" as="targetPoint" />
          </mxGeometry>
        </mxCell>
        <mxCell id="WwGMtlM-MG-jqN7k4C0A-14" value="Delete a Timeline" style="edgeLabel;resizable=0;html=1;align=center;verticalAlign=middle;fontSize=18;" parent="WwGMtlM-MG-jqN7k4C0A-13" connectable="0" vertex="1">
          <mxGeometry relative="1" as="geometry" />
        </mxCell>
      </root>
    </mxGraphModel>
  </diagram>
</mxfile>
